<svg width="24" height="24" viewBox="0 0 24 24" fill="none" xmlns="http://www.w3.org/2000/svg">
<path d="M18.1162 5.17676C18.9432 4.49079 20.1865 4.64791 20.8535 5.54297C21.4798 6.38369 21.3501 7.56028 20.5654 8.22559C16.9481 11.2918 13.9794 13.5278 10.9268 16.7939C10.071 17.7095 9.47552 18.344 8.98242 18.7568C8.49209 19.1673 8.22294 19.2518 8.02832 19.25C7.82282 19.2481 7.56601 19.1616 7.12012 18.7803C6.66429 18.3904 6.1228 17.7927 5.33691 16.9209L3.27246 14.6309C2.65214 13.9425 2.57597 12.9159 3.08887 12.1416C3.8196 11.0385 5.385 10.93 6.25879 11.9189L7.5752 13.4092C7.66623 13.5123 7.81952 13.699 8.00781 13.8145C8.42235 14.0685 8.94168 14.0659 9.35352 13.8076C9.54072 13.6902 9.69336 13.5006 9.78418 13.3955C12.2327 10.5635 14.8073 7.92135 18.1162 5.17676Z" fill="#969696" stroke="#969696" stroke-width="1.5"/>
</svg>
