<svg width="20" height="22" viewBox="0 0 20 22" fill="none" xmlns="http://www.w3.org/2000/svg">
<path d="M18.3573 2.75087C18.75 3.36597 18.75 4.16166 18.75 5.75304V15.747C18.75 17.3383 18.75 18.134 18.3573 18.7491C18.2872 18.859 18.2086 18.9632 18.1222 19.0608C17.6386 19.6072 16.8733 19.8258 15.3429 20.263C13.8086 20.7013 13.0414 20.9204 12.486 20.5917C12.3896 20.5347 12.3 20.4671 12.2187 20.3902C11.75 19.9465 11.75 19.1488 11.75 17.5534V3.94662C11.75 2.35122 11.75 1.55351 12.2187 1.10982C12.3 1.03288 12.3896 0.96527 12.486 0.908265C13.0414 0.579556 13.8086 0.798702 15.3429 1.23699C16.8733 1.67418 17.6386 1.89278 18.1222 2.43925C18.2086 2.53684 18.2872 2.64103 18.3573 2.75087Z" stroke="#666666" stroke-width="1.5" stroke-linecap="round" stroke-linejoin="round"/>
<path d="M11.75 2.75H9.73294C7.83124 2.75 6.88039 2.75 6.2896 3.33579C5.96023 3.66238 5.81449 4.09994 5.75 4.75M11.75 18.75H9.73294C7.83124 18.75 6.88039 18.75 6.2896 18.1642C5.96023 17.8376 5.81449 17.4001 5.75 16.75" stroke="#666666" stroke-width="1.5" stroke-linecap="round" stroke-linejoin="round"/>
<path d="M7.75 10.7501H0.75M6.25005 8.25C6.25005 8.25 8.75003 10.0912 8.75003 10.75C8.75004 11.4088 6.25003 13.25 6.25003 13.25" stroke="#666666" stroke-width="1.5" stroke-linecap="round" stroke-linejoin="round"/>
</svg>
